<svg width="221" height="50" viewBox="0 0 221 50" fill="none" xmlns="http://www.w3.org/2000/svg">
<path d="M101.939 42.7493C79.1436 45.6577 34.6898 44.2102 33.633 15.248C32.911 -4.52587 56.1905 -1.5573 56.1417 20.1071C56.0929 41.7716 21.1168 54.1087 4.3335 15.1815M4.3335 15.1815L12.6751 17.1536M4.3335 15.1815L2 26.3636" stroke="#424242" stroke-width="3.48925" stroke-linecap="round"/>
<path d="M114.071 41.4008C113.269 41.4008 112.557 41.1603 111.933 40.6791C111.327 40.1802 110.855 39.5031 110.516 38.6477C110.178 37.7924 110.008 36.8034 110.008 35.6807C110.008 34.5047 110.142 33.3196 110.409 32.1257C110.677 30.9318 111.015 29.8359 111.425 28.838C111.835 27.8401 112.254 27.0471 112.681 26.4591C113.109 25.8532 113.492 25.5503 113.831 25.5503C114.08 25.5503 114.285 25.6305 114.446 25.7909C114.606 25.9512 114.686 26.1829 114.686 26.4858C114.686 26.5571 114.615 26.8066 114.472 27.2343C114.33 27.6441 114.152 28.1787 113.938 28.838C113.724 29.4795 113.51 30.1923 113.296 30.9764C113.082 31.7604 112.904 32.5623 112.762 33.382C112.619 34.2017 112.548 34.9769 112.548 35.7075C112.548 36.9548 112.664 37.8369 112.895 38.3537C113.145 38.8526 113.537 39.1021 114.071 39.1021C115.372 39.1021 116.584 38.7635 117.707 38.0864C118.847 37.3914 119.898 36.4826 120.861 35.36C121.841 34.2195 122.741 32.9633 123.56 31.5911C122.937 31.6802 122.331 31.7515 121.743 31.805C121.155 31.8406 120.593 31.8673 120.059 31.8852C119.542 31.903 119.203 31.8406 119.043 31.6981C118.883 31.5555 118.802 31.3328 118.802 31.0298C118.785 30.7625 118.892 30.522 119.123 30.3081C119.373 30.0943 119.631 29.9785 119.898 29.9607C120.7 29.8894 121.52 29.8003 122.357 29.6934C123.195 29.5864 124.024 29.4617 124.843 29.3191C125.271 28.4994 125.681 27.6708 126.073 26.8333C126.465 25.9958 126.821 25.1939 127.142 24.4277C127.516 23.2694 127.908 22.1913 128.318 21.1934C128.728 20.1777 129.138 19.358 129.548 18.7343C129.958 18.0928 130.341 17.772 130.697 17.772C131.303 17.772 131.606 18.075 131.606 18.6808C131.606 18.8056 131.526 19.1531 131.365 19.7233C131.205 20.2935 130.982 21.033 130.697 21.9418C130.43 22.8506 130.118 23.8842 129.762 25.0424C129.405 26.1829 129.04 27.3857 128.666 28.6509C130.269 28.3302 131.731 28.0183 133.049 27.7154C134.386 27.3946 135.482 27.1362 136.337 26.9402C137.192 26.7264 137.7 26.6195 137.861 26.6195C138.092 26.6195 138.279 26.7353 138.422 26.967C138.564 27.1808 138.636 27.3857 138.636 27.5817C138.636 27.7421 138.342 27.9559 137.754 28.2232C137.183 28.4905 136.39 28.7846 135.375 29.1053C134.377 29.4082 133.236 29.7201 131.953 30.0408C130.688 30.3438 129.369 30.6289 127.997 30.8962C127.552 32.4108 127.124 33.9077 126.714 35.3867C126.305 36.8657 125.957 38.22 125.672 39.4496C125.512 40.2337 125.119 40.6257 124.496 40.6257C124.175 40.6257 123.934 40.5455 123.774 40.3851C123.632 40.2247 123.56 39.9485 123.56 39.5565C123.56 39.5031 123.605 39.2358 123.694 38.7546C123.801 38.2557 123.934 37.6409 124.095 36.9103C124.255 36.1619 124.425 35.3867 124.603 34.5848C124.781 33.7651 124.95 33.0078 125.111 32.3128C124.166 33.9879 123.124 35.5115 121.983 36.8836C120.843 38.2557 119.604 39.3516 118.268 40.1713C116.949 40.991 115.55 41.4008 114.071 41.4008ZM114.392 22.9308C113.964 22.9308 113.608 22.7972 113.323 22.5299C113.056 22.2626 112.922 21.9329 112.922 21.5409C112.922 21.0598 113.091 20.6588 113.43 20.3381C113.786 19.9995 114.196 19.8302 114.659 19.8302C115.176 19.8302 115.568 19.9817 115.835 20.2846C116.103 20.5697 116.236 20.9439 116.236 21.4072C116.236 21.7814 116.058 22.1289 115.702 22.4497C115.345 22.7704 114.909 22.9308 114.392 22.9308ZM135.175 30.0141C134.765 30.0141 134.56 29.7914 134.56 29.3459C134.56 29.0786 134.64 28.7756 134.801 28.4371C134.979 28.0985 135.175 27.6976 135.389 27.2343C135.603 26.7709 135.79 26.2364 135.95 25.6305C136.128 25.0246 136.217 24.3386 136.217 23.5723C136.217 23.3228 136.199 23.0734 136.164 22.8239C136.146 22.5566 136.137 22.3071 136.137 22.0755C136.137 21.131 136.244 20.5252 136.458 20.2579C136.672 19.9728 136.975 19.8302 137.367 19.8302C137.723 19.8302 138.026 19.9906 138.275 20.3113C138.525 20.6321 138.65 21.229 138.65 22.1022C138.65 23.1714 138.516 24.1871 138.249 25.1494C137.981 26.0938 137.652 26.9313 137.26 27.6619C136.868 28.3925 136.476 28.9717 136.084 29.3993C135.709 29.8092 135.406 30.0141 135.175 30.0141ZM145.033 41.3207C144.641 41.3207 144.338 41.2048 144.124 40.9732C143.928 40.7593 143.83 40.5099 143.83 40.2247C143.83 39.9753 143.937 39.7436 144.15 39.5298C144.382 39.2981 144.694 39.0932 145.086 38.915C145.799 38.5408 146.467 38.1666 147.091 37.7924C147.732 37.4182 148.249 37.0172 148.641 36.5895C149.033 36.1619 149.229 35.7075 149.229 35.2263C149.229 34.8165 149.095 34.5047 148.828 34.2908C148.561 34.0592 148.196 33.9433 147.732 33.9433C147.465 33.9433 147.091 33.9968 146.61 34.1037C146.128 34.1928 145.603 34.2997 145.033 34.4245C144.48 34.5314 143.937 34.6383 143.402 34.7452C142.867 34.8343 142.413 34.8789 142.039 34.8789C141.362 34.8789 140.854 34.7185 140.515 34.3977C140.177 34.0592 140.007 33.6048 140.007 33.0345C140.007 32.7494 140.177 32.3217 140.515 31.7515C140.854 31.1813 141.299 30.5487 141.852 29.8537C142.422 29.1409 143.046 28.4282 143.723 27.7154C144.4 27.0026 145.086 26.3433 145.781 25.7374C146.494 25.1315 147.153 24.6415 147.759 24.2673C148.383 23.8931 148.899 23.706 149.309 23.706C149.719 23.706 150.031 23.8396 150.245 24.1069C150.459 24.3742 150.566 24.7128 150.566 25.1226C150.566 25.4434 150.512 25.7196 150.405 25.9512C150.298 26.1651 150.076 26.3344 149.737 26.4591C149.416 26.5838 148.917 26.6551 148.24 26.6729C147.545 27.2253 146.806 27.8579 146.022 28.5707C145.255 29.2657 144.551 29.9874 143.91 30.7358C143.286 31.4664 142.832 32.1703 142.547 32.8474C143.135 32.6514 143.848 32.4821 144.685 32.3396C145.54 32.1792 146.405 32.099 147.278 32.099C148.65 32.099 149.666 32.4108 150.325 33.0345C151.002 33.6404 151.341 34.4423 151.341 35.4402C151.341 36.0817 151.136 36.7499 150.726 37.4449C150.334 38.122 149.817 38.7546 149.176 39.3427C148.534 39.9307 147.848 40.4029 147.117 40.7593C146.387 41.1335 145.692 41.3207 145.033 41.3207ZM169.11 43.1115C168.807 43.1115 168.566 43.0046 168.388 42.7908C168.21 42.5769 168.121 42.2205 168.121 41.7216C168.121 40.8306 168.165 39.9129 168.254 38.9685C168.361 38.0062 168.415 37.1152 168.415 36.2955C168.415 34.4245 168.245 32.8831 167.907 31.6713C167.586 30.4418 166.882 29.6132 165.795 29.1855C165.546 29.0964 165.367 28.9984 165.26 28.8915C165.136 28.7846 165.073 28.6153 165.073 28.3836C165.073 28.1341 165.171 27.9292 165.367 27.7688C165.546 27.6085 165.884 27.5283 166.383 27.5283C166.793 27.5283 167.336 27.5461 168.014 27.5817C168.691 27.6174 169.421 27.653 170.205 27.6887C170.758 25.7107 171.382 24.0713 172.076 22.7704C172.771 21.4696 173.529 20.445 174.348 19.6966C175.186 18.9481 176.068 18.4135 176.995 18.0928C177.939 17.772 178.919 17.6117 179.935 17.6117C180.38 17.6117 180.666 17.674 180.79 17.7988C180.915 17.9057 180.977 18.075 180.977 18.3066C180.977 18.5917 180.888 18.8947 180.71 19.2154C180.532 19.5184 180.167 19.7144 179.614 19.8035C178.402 20.0173 177.324 20.4093 176.38 20.9796C175.435 21.5498 174.616 22.3784 173.921 23.4654C173.226 24.5346 172.647 25.9423 172.183 27.6887C173.894 27.653 175.364 27.5639 176.594 27.4214C177.823 27.261 178.848 27.0917 179.668 26.9135C180.505 26.7175 181.173 26.5571 181.672 26.4324C182.171 26.2898 182.554 26.2185 182.822 26.2185C183.125 26.2185 183.312 26.2987 183.383 26.4591C183.454 26.6195 183.49 26.7888 183.49 26.967C183.49 27.3055 183.169 27.6352 182.528 27.9559C181.886 28.2589 181.04 28.5351 179.988 28.7846C178.955 29.0162 177.814 29.2033 176.567 29.3459C175.32 29.4884 174.09 29.5597 172.878 29.5597C172.682 29.5597 172.486 29.5597 172.29 29.5597C172.112 29.5597 171.925 29.5597 171.729 29.5597C171.693 29.6844 171.667 29.8181 171.649 29.9607C171.471 30.9942 171.292 32.0901 171.114 33.2484C170.954 34.3888 170.802 35.5115 170.66 36.6163C170.535 37.7033 170.437 38.6923 170.366 39.5832C170.295 40.4742 170.259 41.187 170.259 41.7216C170.259 42.1671 170.152 42.5057 169.938 42.7373C169.724 42.9868 169.448 43.1115 169.11 43.1115ZM169.751 29.4528C169.234 29.3993 168.753 29.3281 168.308 29.239C168.539 29.5063 168.735 29.8181 168.896 30.1745C169.074 30.5309 169.225 30.914 169.35 31.3239C169.475 30.6645 169.608 30.0408 169.751 29.4528ZM181.344 39.2405C181.059 39.2405 180.819 39.1246 180.623 38.893C180.427 38.6613 180.329 38.3406 180.329 37.9307C180.329 37.6278 180.391 37.1288 180.516 36.4339C180.658 35.7211 180.81 34.8925 180.97 33.948C181.148 33.0036 181.3 32.0235 181.424 31.0078C181.549 29.9743 181.612 28.9853 181.612 28.0408C181.612 27.5775 181.727 27.239 181.959 27.0251C182.209 26.7935 182.485 26.6776 182.788 26.6776C183.073 26.6776 183.287 26.8558 183.429 27.2122C183.572 27.5686 183.598 28.2814 183.509 29.3506C184.329 27.533 185.229 26.0718 186.209 24.967C187.207 23.8443 188.196 23.0424 189.176 22.5613C190.156 22.0624 191.038 21.8129 191.822 21.8129C192.339 21.8129 192.713 21.9198 192.945 22.1336C193.194 22.3297 193.319 22.5524 193.319 22.8019C193.319 23.1404 193.176 23.4077 192.891 23.6038C192.624 23.782 192.152 23.9958 191.475 24.2453C190.691 24.5482 189.969 24.9046 189.31 25.3144C188.668 25.7065 188.053 26.2232 187.465 26.8647C186.895 27.5063 186.334 28.326 185.781 29.3239C185.229 30.3039 184.677 31.5157 184.124 32.9591C183.572 34.4024 182.984 36.1399 182.36 38.1713C182.253 38.5633 182.111 38.8395 181.932 38.9999C181.772 39.1603 181.576 39.2405 181.344 39.2405ZM203.333 27.9827C203.333 28.8202 203.092 29.6755 202.611 30.5487C202.13 31.404 201.355 32.2327 200.286 33.0345C199.234 33.8186 197.853 34.5225 196.143 35.1462C196.214 36.4292 196.543 37.338 197.132 37.8726C197.72 38.4071 198.7 38.6744 200.072 38.6744C201.141 38.6744 202.174 38.4873 203.172 38.1131C204.188 37.7389 205.124 37.2311 205.979 36.5895C205.819 36.0906 205.694 35.5471 205.605 34.9591C205.516 34.371 205.471 33.7473 205.471 33.088C205.471 31.6624 205.658 30.4507 206.032 29.4528C206.407 28.4549 206.888 27.6976 207.476 27.1808C208.082 26.664 208.696 26.4056 209.32 26.4056C210.122 26.4056 210.772 26.6908 211.271 27.261C211.788 27.8134 212.047 28.6687 212.047 29.827C212.047 31.1278 211.717 32.4019 211.058 33.6493C210.398 34.8967 209.543 36.0282 208.492 37.0439C208.812 37.5964 209.187 38.0062 209.614 38.2735C210.06 38.5408 210.541 38.6744 211.058 38.6744C211.681 38.6744 212.358 38.5052 213.089 38.1666C213.837 37.828 214.604 37.3825 215.388 36.8301C216.172 36.2777 216.929 35.6807 217.66 35.0392C218.39 34.3799 219.041 33.7384 219.611 33.1147C219.754 32.9365 219.896 32.8207 220.039 32.7672C220.181 32.696 220.315 32.6603 220.44 32.6603C220.814 32.6603 221.001 32.8652 221.001 33.2751C221.001 33.578 220.849 33.9166 220.547 34.2908C219.958 34.968 219.255 35.6897 218.435 36.4559C217.633 37.2221 216.778 37.9438 215.869 38.621C214.978 39.2981 214.087 39.8505 213.196 40.2782C212.323 40.7059 211.512 40.9197 210.764 40.9197C209.979 40.9197 209.24 40.7059 208.545 40.2782C207.868 39.8505 207.289 39.2358 206.808 38.4339C205.738 39.2001 204.589 39.806 203.359 40.2515C202.13 40.697 200.918 40.9197 199.724 40.9197C197.764 40.9197 196.321 40.3851 195.394 39.3159C194.468 38.2468 194.004 36.7945 194.004 34.9591C194.004 33.5335 194.2 32.2237 194.592 31.0298C195.002 29.8181 195.528 28.7667 196.169 27.8758C196.811 26.967 197.515 26.2631 198.281 25.7641C199.047 25.2652 199.796 25.0157 200.526 25.0157C201.471 25.0157 202.174 25.3008 202.638 25.871C203.101 26.4413 203.333 27.1452 203.333 27.9827ZM196.223 33.3018C197.114 32.8563 197.951 32.3128 198.735 31.6713C199.537 31.012 200.179 30.3349 200.66 29.6399C201.159 28.9449 201.408 28.3123 201.408 27.7421C201.408 27.4926 201.355 27.3055 201.248 27.1808C201.141 27.0382 200.945 26.967 200.66 26.967C200.232 26.967 199.787 27.163 199.323 27.555C198.86 27.9292 198.415 28.4282 197.987 29.0519C197.559 29.6577 197.185 30.3349 196.864 31.0833C196.561 31.8317 196.347 32.5712 196.223 33.3018ZM207.77 34.9591C208.5 34.1393 209.08 33.2573 209.507 32.3128C209.935 31.3684 210.149 30.4329 210.149 29.5063C210.149 28.7222 209.953 28.3302 209.561 28.3302C209.008 28.3302 208.536 28.7311 208.144 29.533C207.77 30.317 207.583 31.3328 207.583 32.5801C207.583 33.4533 207.645 34.2463 207.77 34.9591Z" fill="#424242"/>
</svg>
