<svg width="111" height="27" viewBox="0 0 111 27" fill="none" xmlns="http://www.w3.org/2000/svg">
<path d="M4.07134 24.4008C3.26946 24.4008 2.55667 24.1603 1.93299 23.6791C1.32712 23.1802 0.854902 22.5031 0.516329 21.6477C0.177757 20.7924 0.00847046 19.8034 0.00847046 18.6807C0.00847046 17.5047 0.142118 16.3196 0.409412 15.1257C0.676706 13.9318 1.01528 12.8359 1.42513 11.838C1.83498 10.8401 2.25374 10.0471 2.68141 9.4591C3.10908 8.85323 3.4922 8.5503 3.83078 8.5503C4.08025 8.5503 4.28518 8.63049 4.44555 8.79086C4.60593 8.95124 4.68612 9.18289 4.68612 9.48583C4.68612 9.5571 4.61484 9.80658 4.47228 10.2343C4.32973 10.6441 4.15153 11.1787 3.93769 11.838C3.72386 12.4795 3.51002 13.1923 3.29619 13.9764C3.08235 14.7604 2.90416 15.5623 2.7616 16.382C2.61904 17.2017 2.54776 17.9769 2.54776 18.7075C2.54776 19.9548 2.66359 20.8369 2.89525 21.3537C3.14472 21.8526 3.53675 22.1021 4.07134 22.1021C5.37217 22.1021 6.58391 21.7635 7.70654 21.0864C8.847 20.3914 9.89835 19.4826 10.8606 18.36C11.8407 17.2195 12.7406 15.9633 13.5603 14.5911C12.9366 14.6802 12.3307 14.7515 11.7427 14.805C11.1546 14.8406 10.5933 14.8673 10.0587 14.8852C9.54196 14.903 9.20339 14.8406 9.04301 14.6981C8.88264 14.5555 8.80245 14.3328 8.80245 14.0298C8.78463 13.7625 8.89155 13.522 9.1232 13.3081C9.37268 13.0943 9.63106 12.9785 9.89835 12.9607C10.7002 12.8894 11.5199 12.8003 12.3575 12.6934C13.195 12.5864 14.0236 12.4617 14.8433 12.3191C15.271 11.4994 15.6808 10.6708 16.0728 9.83331C16.4649 8.99579 16.8213 8.1939 17.142 7.42766C17.5162 6.26939 17.9083 5.1913 18.3181 4.1934C18.728 3.17768 19.1378 2.35798 19.5477 1.7343C19.9575 1.09279 20.3406 0.772038 20.697 0.772038C21.3029 0.772038 21.6058 1.07497 21.6058 1.68084C21.6058 1.80557 21.5257 2.15306 21.3653 2.72329C21.2049 3.29351 20.9822 4.03303 20.697 4.94183C20.4297 5.85063 20.1179 6.88416 19.7615 8.04244C19.4051 9.18289 19.0398 10.3857 18.6656 11.6509C20.2694 11.3302 21.7306 11.0183 23.0492 10.7154C24.3857 10.3946 25.4816 10.1362 26.3369 9.94023C27.1923 9.72639 27.7001 9.61947 27.8605 9.61947C28.0922 9.61947 28.2793 9.7353 28.4218 9.96696C28.5644 10.1808 28.6357 10.3857 28.6357 10.5817C28.6357 10.7421 28.3416 10.9559 27.7536 11.2232C27.1834 11.4905 26.3904 11.7846 25.3747 12.1053C24.3768 12.4082 23.2363 12.7201 21.9533 13.0408C20.6881 13.3438 19.3695 13.6289 17.9974 13.8962C17.5519 15.4108 17.1242 16.9077 16.7144 18.3867C16.3045 19.8657 15.957 21.22 15.6719 22.4496C15.5115 23.2337 15.1195 23.6257 14.4958 23.6257C14.1751 23.6257 13.9345 23.5455 13.7741 23.3851C13.6316 23.2247 13.5603 22.9485 13.5603 22.5565C13.5603 22.5031 13.6048 22.2358 13.6939 21.7546C13.8008 21.2557 13.9345 20.6409 14.0949 19.9103C14.2552 19.1619 14.4245 18.3867 14.6027 17.5848C14.7809 16.7651 14.9502 16.0078 15.1106 15.3128C14.1662 16.9879 13.1237 18.5115 11.9832 19.8836C10.8428 21.2557 9.60433 22.3516 8.26786 23.1713C6.94921 23.991 5.55037 24.4008 4.07134 24.4008ZM4.39209 5.93082C3.96442 5.93082 3.60803 5.79717 3.32292 5.52987C3.05562 5.26258 2.92198 4.93292 2.92198 4.54088C2.92198 4.05975 3.09126 3.65881 3.42984 3.33806C3.78623 2.99949 4.19608 2.8302 4.65939 2.8302C5.17616 2.8302 5.56819 2.98167 5.83548 3.2846C6.10278 3.56972 6.23642 3.94393 6.23642 4.40724C6.23642 4.78145 6.05823 5.12893 5.70184 5.44969C5.34544 5.77044 4.90886 5.93082 4.39209 5.93082ZM25.1748 13.0141C24.765 13.0141 24.5601 12.7914 24.5601 12.3459C24.5601 12.0786 24.6403 11.7756 24.8006 11.4371C24.9788 11.0985 25.1748 10.6976 25.3887 10.2343C25.6025 9.77094 25.7896 9.23635 25.95 8.63049C26.1282 8.02462 26.2173 7.33856 26.2173 6.57232C26.2173 6.32285 26.1995 6.07337 26.1638 5.8239C26.146 5.5566 26.1371 5.30713 26.1371 5.07547C26.1371 4.13103 26.244 3.52517 26.4579 3.25787C26.6717 2.97276 26.9746 2.8302 27.3667 2.8302C27.723 2.8302 28.026 2.99058 28.2755 3.31133C28.5249 3.63208 28.6497 4.22904 28.6497 5.1022C28.6497 6.17138 28.516 7.1871 28.2487 8.14936C27.9814 9.0938 27.6518 9.93132 27.2597 10.6619C26.8677 11.3925 26.4757 11.9717 26.0836 12.3993C25.7094 12.8092 25.4065 13.0141 25.1748 13.0141ZM35.0326 24.3207C34.6405 24.3207 34.3376 24.2048 34.1238 23.9732C33.9277 23.7593 33.8297 23.5099 33.8297 23.2247C33.8297 22.9753 33.9367 22.7436 34.1505 22.5298C34.3821 22.2981 34.694 22.0932 35.086 21.915C35.7988 21.5408 36.467 21.1666 37.0907 20.7924C37.7322 20.4182 38.249 20.0172 38.641 19.5895C39.0331 19.1619 39.2291 18.7075 39.2291 18.2263C39.2291 17.8165 39.0954 17.5047 38.8281 17.2908C38.5608 17.0592 38.1955 16.9433 37.7322 16.9433C37.4649 16.9433 37.0907 16.9968 36.6096 17.1037C36.1285 17.1928 35.6028 17.2997 35.0326 17.4245C34.4802 17.5314 33.9367 17.6383 33.4021 17.7452C32.8675 17.8343 32.4131 17.8789 32.0389 17.8789C31.3617 17.8789 30.8539 17.7185 30.5153 17.3977C30.1767 17.0592 30.0074 16.6048 30.0074 16.0345C30.0074 15.7494 30.1767 15.3217 30.5153 14.7515C30.8539 14.1813 31.2994 13.5487 31.8518 12.8537C32.422 12.1409 33.0457 11.4282 33.7228 10.7154C34.4 10.0026 35.086 9.34327 35.781 8.7374C36.4938 8.13154 37.1531 7.6415 37.759 7.26728C38.3827 6.89307 38.8994 6.70597 39.3093 6.70597C39.7191 6.70597 40.031 6.83961 40.2448 7.10691C40.4586 7.3742 40.5656 7.71277 40.5656 8.12263C40.5656 8.44338 40.5121 8.71958 40.4052 8.95124C40.2983 9.16507 40.0755 9.33436 39.7369 9.4591C39.4162 9.58383 38.9172 9.65511 38.2401 9.67293C37.5451 10.2253 36.8056 10.8579 36.0216 11.5707C35.2553 12.2657 34.5514 12.9874 33.9099 13.7358C33.2862 14.4664 32.8318 15.1703 32.5467 15.8474C33.1348 15.6514 33.8476 15.4821 34.6851 15.3396C35.5404 15.1792 36.4047 15.099 37.2778 15.099C38.6499 15.099 39.6657 15.4108 40.325 16.0345C41.0021 16.6404 41.3407 17.4423 41.3407 18.4402C41.3407 19.0817 41.1358 19.7499 40.7259 20.4449C40.3339 21.122 39.8171 21.7546 39.1756 22.3427C38.5341 22.9307 37.8481 23.4029 37.1175 23.7593C36.3869 24.1335 35.6919 24.3207 35.0326 24.3207ZM59.1095 26.1115C58.8066 26.1115 58.566 26.0046 58.3878 25.7908C58.2096 25.5769 58.1205 25.2205 58.1205 24.7216C58.1205 23.8306 58.1651 22.9129 58.2542 21.9685C58.3611 21.0062 58.4145 20.1152 58.4145 19.2955C58.4145 17.4245 58.2453 15.8831 57.9067 14.6713C57.5859 13.4418 56.8821 12.6132 55.7951 12.1855C55.5456 12.0964 55.3674 11.9984 55.2605 11.8915C55.1357 11.7846 55.0734 11.6153 55.0734 11.3836C55.0734 11.1341 55.1714 10.9292 55.3674 10.7688C55.5456 10.6085 55.8842 10.5283 56.3831 10.5283C56.793 10.5283 57.3365 10.5461 58.0136 10.5817C58.6907 10.6174 59.4213 10.653 60.2054 10.6887C60.7578 8.71067 61.3815 7.07127 62.0765 5.77044C62.7714 4.46961 63.5288 3.44498 64.3485 2.69655C65.186 1.94813 66.0681 1.41354 66.9947 1.09279C67.9391 0.772037 68.9192 0.61166 69.9349 0.61166C70.3804 0.61166 70.6655 0.674029 70.7903 0.798767C70.915 0.905684 70.9774 1.07497 70.9774 1.30663C70.9774 1.59174 70.8883 1.89467 70.7101 2.21542C70.5319 2.51836 70.1666 2.71437 69.6142 2.80347C68.4024 3.01731 67.3243 3.40934 66.3799 3.97957C65.4355 4.5498 64.6158 5.37841 63.9208 6.4654C63.2258 7.53458 62.6467 8.94233 62.1834 10.6887C63.8941 10.653 65.3642 10.5639 66.5937 10.4214C67.8233 10.261 68.8479 10.0917 69.6676 9.9135C70.5051 9.71748 71.1734 9.55711 71.6723 9.43237C72.1713 9.28981 72.5544 9.21853 72.8217 9.21853C73.1246 9.21853 73.3117 9.29872 73.383 9.4591C73.4543 9.61947 73.4899 9.78876 73.4899 9.96696C73.4899 10.3055 73.1692 10.6352 72.5277 10.9559C71.8862 11.2589 71.0397 11.5351 69.9884 11.7846C68.9548 12.0162 67.8144 12.2033 66.567 12.3459C65.3196 12.4884 64.0901 12.5597 62.8784 12.5597C62.6823 12.5597 62.4863 12.5597 62.2903 12.5597C62.1121 12.5597 61.925 12.5597 61.729 12.5597C61.6933 12.6844 61.6666 12.8181 61.6488 12.9607C61.4706 13.9942 61.2924 15.0901 61.1142 16.2484C60.9538 17.3888 60.8024 18.5115 60.6598 19.6163C60.5351 20.7033 60.4371 21.6923 60.3658 22.5832C60.2945 23.4742 60.2589 24.187 60.2589 24.7216C60.2589 25.1671 60.1519 25.5057 59.9381 25.7373C59.7243 25.9868 59.4481 26.1115 59.1095 26.1115ZM59.751 12.4528C59.2342 12.3993 58.7531 12.3281 58.3076 12.239C58.5393 12.5063 58.7353 12.8181 58.8957 13.1745C59.0739 13.5309 59.2253 13.914 59.3501 14.3239C59.4748 13.6645 59.6085 13.0408 59.751 12.4528ZM71.3443 22.2405C71.0592 22.2405 70.8186 22.1246 70.6226 21.893C70.4266 21.6613 70.3285 21.3406 70.3285 20.9307C70.3285 20.6278 70.3909 20.1288 70.5157 19.4339C70.6582 18.7211 70.8097 17.8925 70.9701 16.948C71.1482 16.0036 71.2997 15.0235 71.4245 14.0078C71.5492 12.9743 71.6116 11.9853 71.6116 11.0408C71.6116 10.5775 71.7274 10.239 71.959 10.0251C72.2085 9.79347 72.4847 9.67764 72.7877 9.67764C73.0728 9.67764 73.2866 9.85583 73.4292 10.2122C73.5717 10.5686 73.5984 11.2814 73.5093 12.3506C74.329 10.533 75.2289 9.07177 76.209 7.96696C77.2069 6.84432 78.1959 6.04244 79.176 5.56131C80.1561 5.06236 81.0381 4.81289 81.8222 4.81289C82.339 4.81289 82.7132 4.9198 82.9448 5.13364C83.1943 5.32965 83.319 5.5524 83.319 5.80187C83.319 6.14045 83.1765 6.40774 82.8914 6.60376C82.6241 6.78195 82.1519 6.99579 81.4747 7.24526C80.6907 7.54819 79.969 7.90459 79.3096 8.31444C78.6681 8.70647 78.0533 9.22324 77.4653 9.86474C76.8951 10.5063 76.3338 11.326 75.7813 12.3239C75.2289 13.3039 74.6765 14.5157 74.1241 15.9591C73.5717 17.4024 72.9837 19.1399 72.36 21.1713C72.2531 21.5633 72.1105 21.8395 71.9323 21.9999C71.7719 22.1603 71.5759 22.2405 71.3443 22.2405ZM93.3328 10.9827C93.3328 11.8202 93.0922 12.6755 92.6111 13.5487C92.1299 14.404 91.3548 15.2327 90.2856 16.0345C89.2342 16.8186 87.8532 17.5225 86.1425 18.1462C86.2138 19.4292 86.5435 20.338 87.1315 20.8726C87.7196 21.4071 88.6997 21.6744 90.0718 21.6744C91.1409 21.6744 92.1745 21.4873 93.1724 21.1131C94.1881 20.7389 95.1236 20.2311 95.979 19.5895C95.8186 19.0906 95.6939 18.5471 95.6048 17.9591C95.5157 17.371 95.4711 16.7473 95.4711 16.088C95.4711 14.6624 95.6582 13.4507 96.0324 12.4528C96.4066 11.4549 96.8878 10.6976 97.4758 10.1808C98.0817 9.66402 98.6965 9.40564 99.3201 9.40564C100.122 9.40564 100.772 9.69075 101.271 10.261C101.788 10.8134 102.047 11.6687 102.047 12.827C102.047 14.1278 101.717 15.4019 101.058 16.6493C100.398 17.8967 99.5429 19.0282 98.4915 20.0439C98.8123 20.5964 99.1865 21.0062 99.6142 21.2735C100.06 21.5408 100.541 21.6744 101.058 21.6744C101.681 21.6744 102.358 21.5052 103.089 21.1666C103.837 20.828 104.604 20.3825 105.388 19.8301C106.172 19.2777 106.929 18.6807 107.66 18.0392C108.39 17.3799 109.041 16.7384 109.611 16.1147C109.754 15.9365 109.896 15.8207 110.039 15.7672C110.181 15.696 110.315 15.6603 110.44 15.6603C110.814 15.6603 111.001 15.8652 111.001 16.2751C111.001 16.578 110.849 16.9166 110.547 17.2908C109.958 17.968 109.255 18.6897 108.435 19.4559C107.633 20.2221 106.778 20.9438 105.869 21.621C104.978 22.2981 104.087 22.8505 103.196 23.2782C102.323 23.7059 101.512 23.9197 100.764 23.9197C99.9795 23.9197 99.24 23.7059 98.545 23.2782C97.8678 22.8505 97.2887 22.2358 96.8076 21.4339C95.7384 22.2001 94.589 22.806 93.3595 23.2515C92.1299 23.697 90.9182 23.9197 89.7243 23.9197C87.7641 23.9197 86.3207 23.3851 85.3941 22.3159C84.4675 21.2468 84.0042 19.7945 84.0042 17.9591C84.0042 16.5335 84.2002 15.2237 84.5922 14.0298C85.0021 12.8181 85.5278 11.7667 86.1693 10.8758C86.8108 9.96696 87.5147 9.26308 88.2809 8.76413C89.0471 8.26518 89.7956 8.01571 90.5262 8.01571C91.4706 8.01571 92.1745 8.30082 92.6378 8.87105C93.1011 9.44128 93.3328 10.1452 93.3328 10.9827ZM86.2227 16.3018C87.1137 15.8563 87.9512 15.3128 88.7353 14.6713C89.5372 14.012 90.1787 13.3349 90.6598 12.6399C91.1588 11.9449 91.4082 11.3123 91.4082 10.7421C91.4082 10.4926 91.3548 10.3055 91.2479 10.1808C91.1409 10.0382 90.9449 9.96696 90.6598 9.96696C90.2321 9.96696 89.7867 10.163 89.3233 10.555C88.86 10.9292 88.4145 11.4282 87.9869 12.0519C87.5592 12.6577 87.185 13.3349 86.8642 14.0833C86.5613 14.8317 86.3475 15.5712 86.2227 16.3018ZM97.7698 17.9591C98.5004 17.1393 99.0796 16.2573 99.5073 15.3128C99.9349 14.3684 100.149 13.4329 100.149 12.5063C100.149 11.7222 99.9527 11.3302 99.5607 11.3302C99.0083 11.3302 98.5361 11.7311 98.1441 12.533C97.7698 13.317 97.5827 14.3328 97.5827 15.5801C97.5827 16.4533 97.6451 17.2463 97.7698 17.9591Z" fill="#424242"/>
</svg>
